<svg width="1053" height="825" viewBox="0 0 1053 825" fill="none" xmlns="http://www.w3.org/2000/svg">
<g clip-path="url(#clip0_1_53)">
<path d="M531.671 597.464C528.378 593.654 517.219 598.589 506.748 608.486C496.276 618.383 490.457 629.495 493.751 633.305C497.044 637.116 508.203 632.181 518.674 622.284C529.146 612.386 534.965 601.274 531.671 597.464Z" fill="#2F2E41"/>
<g filter="url(#filter0_d_1_53)">
<path d="M511.931 551.581C584.831 632.242 569.102 701.513 518.31 752.221C517.13 753.399 515.942 754.556 514.746 755.692C512.338 757.983 509.896 760.183 507.419 762.294C458.161 804.28 395.784 810.234 327.988 735.22C257.826 657.59 254.487 474.56 254.33 460.937C254.336 460.931 254.336 460.931 254.336 460.919C254.329 460.401 254.328 460.139 254.328 460.139C254.328 460.139 439.036 470.928 511.931 551.581Z" fill="#EB6262"/>
</g>
<path d="M503.811 743.225L487.985 654.914L509.156 749.317L514.746 755.692C512.338 757.983 509.896 760.183 507.419 762.294L438.113 677.982L437.52 677.386L437.475 677.206L430.928 669.237L342.091 642.1L425.867 663.424L427.414 664.956L375.05 601.256L289.243 567.23L365.722 590.187L254.33 460.937L253.961 460.505L254.336 460.919L343.954 561.076L337.044 492.799L351.589 569.785L400.166 625.136L379.726 545.883L407.312 633.269L434.324 664.047L407.467 552.137L443.742 674.789L503.811 743.225Z" fill="#563D3D" fill-opacity="0.67"/>
<path d="M75.3723 550.117C76.5561 548.937 76.5068 546.862 75.2621 545.484C74.0175 544.106 72.0489 543.945 70.8651 545.126C69.6813 546.307 69.7306 548.381 70.9753 549.759C72.2199 551.138 74.1886 551.298 75.3723 550.117Z" fill="#E0CCDE"/>
<path d="M306.522 489.406C307.706 488.225 307.657 486.151 306.412 484.772C305.167 483.394 303.199 483.233 302.015 484.414C300.831 485.595 300.881 487.669 302.125 489.047C303.37 490.426 305.338 490.586 306.522 489.406Z" fill="#E0CCDE"/>
<path d="M464.317 591.97C465.501 590.79 465.451 588.715 464.207 587.337C462.962 585.959 460.993 585.798 459.81 586.979C458.626 588.159 458.675 590.234 459.92 591.612C461.164 592.991 463.133 593.151 464.317 591.97Z" fill="#E0CCDE"/>
<path d="M359.246 731.854C360.43 730.674 360.381 728.599 359.136 727.221C357.892 725.842 355.923 725.682 354.739 726.863C353.555 728.043 353.605 730.118 354.849 731.496C356.094 732.874 358.063 733.035 359.246 731.854Z" fill="#E0CCDE"/>
<path d="M195.657 422.571C198.262 419.974 198.153 415.41 195.415 412.378C192.677 409.346 188.346 408.993 185.741 411.59C183.137 414.187 183.246 418.751 185.984 421.783C188.722 424.816 193.053 425.169 195.657 422.571Z" fill="#E0CCDE"/>
<path d="M435.447 725.112C438.051 722.515 437.943 717.952 435.205 714.919C432.466 711.887 428.135 711.534 425.531 714.131C422.927 716.728 423.035 721.292 425.773 724.325C428.512 727.357 432.843 727.71 435.447 725.112Z" fill="#E0CCDE"/>
<path d="M367.692 422.71C370.297 420.113 370.188 415.549 367.45 412.517C364.712 409.485 360.381 409.132 357.776 411.729C355.172 414.326 355.281 418.89 358.019 421.922C360.757 424.955 365.088 425.308 367.692 422.71Z" fill="#E0CCDE"/>
<path d="M307.366 635.604C309.971 633.007 309.862 628.443 307.124 625.411C304.386 622.378 300.055 622.025 297.45 624.623C294.846 627.22 294.955 631.784 297.693 634.816C300.431 637.848 304.762 638.201 307.366 635.604Z" fill="#E0CCDE"/>
<path d="M841.376 675.636C842.349 667.004 821.928 657.365 795.764 654.107C769.6 650.848 747.6 655.204 746.627 663.836C745.654 672.468 766.075 682.107 792.239 685.366C818.403 688.624 840.403 684.268 841.376 675.636Z" fill="#2F2E41"/>
<g filter="url(#filter1_d_1_53)">
<path d="M877.843 598.572C861.185 785.603 749.567 840.492 619.066 827.655C616.034 827.357 613.021 827.025 610.025 826.658C603.989 825.926 598.03 825.048 592.147 824.023C475.145 803.674 389.743 726.024 405.235 552.085C421.267 372.08 660.413 166.451 678.327 151.269C678.341 151.271 678.341 151.271 678.357 151.257C679.038 150.678 679.386 150.389 679.386 150.389C679.386 150.389 894.499 411.556 877.843 598.572Z" fill="#EB6262"/>
</g>
<path d="M613.013 798.201L710.741 679.799L611.555 812.11L610.025 826.658C603.989 825.926 598.03 825.048 592.147 824.023L618.123 637.832L618.179 636.377L618.363 636.118L620.823 618.525L546.536 468.797L622.263 605.305L622.147 609.076L641.772 468.401L580.407 315.193L644.898 443.647L678.327 151.269L678.443 150.297L678.357 151.257L656.553 382.278L738.725 297.924L654.461 402.152L641.229 528.542L721.186 413.866L639.296 547.125L631.939 617.404L747.334 458.182L629.361 641.92L613.013 798.201Z" fill="#563D3D" fill-opacity="0.67"/>
<path d="M337.471 7.71485C340.511 8.01542 343.207 5.66936 343.493 2.47477C343.779 -0.719821 341.546 -3.55321 338.507 -3.85378C335.467 -4.15435 332.771 -1.80828 332.485 1.3863C332.199 4.58089 334.431 7.41428 337.471 7.71485Z" fill="#F0C6EC"/>
<path d="M705.321 252.998C708.36 253.299 711.057 250.953 711.343 247.758C711.629 244.564 709.396 241.73 706.356 241.43C703.317 241.129 700.62 243.475 700.334 246.67C700.048 249.864 702.281 252.698 705.321 252.998Z" fill="#F0C6EC"/>
<path d="M765.007 578.686C768.047 578.987 770.743 576.641 771.029 573.446C771.315 570.252 769.083 567.418 766.043 567.118C763.003 566.817 760.307 569.163 760.021 572.358C759.735 575.552 761.967 578.386 765.007 578.686Z" fill="#F0C6EC"/>
<path d="M448.541 590.578C451.581 590.879 454.277 588.532 454.563 585.338C454.849 582.143 452.616 579.31 449.577 579.009C446.537 578.709 443.841 581.055 443.555 584.249C443.269 587.444 445.501 590.277 448.541 590.578Z" fill="#F0C6EC"/>
<path d="M656.438 29.9166C663.125 30.5779 669.057 25.4165 669.686 18.3884C670.315 11.3603 665.404 5.12688 658.716 4.46562C652.029 3.80436 646.097 8.96571 645.468 15.9938C644.839 23.0219 649.75 29.2553 656.438 29.9166Z" fill="#F0C6EC"/>
<path d="M552.163 686.022C558.851 686.684 564.782 681.522 565.412 674.494C566.041 667.466 561.13 661.233 554.442 660.571C547.754 659.91 541.823 665.072 541.194 672.1C540.564 679.128 545.476 685.361 552.163 686.022Z" fill="#F0C6EC"/>
<path d="M869.965 262.275C876.652 262.937 882.584 257.775 883.213 250.747C883.842 243.719 878.931 237.486 872.243 236.824C865.556 236.163 859.624 241.324 858.995 248.352C858.366 255.381 863.277 261.614 869.965 262.275Z" fill="#F0C6EC"/>
<path d="M512.034 414.788C518.722 415.449 524.653 410.288 525.282 403.26C525.912 396.231 521 389.998 514.313 389.337C507.625 388.676 501.693 393.837 501.064 400.865C500.435 407.893 505.346 414.127 512.034 414.788Z" fill="#F0C6EC"/>
</g>
<defs>
<filter id="filter0_d_1_53" x="234.328" y="448.139" width="347.242" height="372.855" filterUnits="userSpaceOnUse" color-interpolation-filters="sRGB">
<feFlood flood-opacity="0" result="BackgroundImageFix"/>
<feColorMatrix in="SourceAlpha" type="matrix" values="0 0 0 0 0 0 0 0 0 0 0 0 0 0 0 0 0 0 127 0" result="hardAlpha"/>
<feOffset dy="8"/>
<feGaussianBlur stdDeviation="10"/>
<feComposite in2="hardAlpha" operator="out"/>
<feColorMatrix type="matrix" values="0 0 0 0 0 0 0 0 0 0 0 0 0 0 0 0 0 0 0.25 0"/>
<feBlend mode="normal" in2="BackgroundImageFix" result="effect1_dropShadow_1_53"/>
<feBlend mode="normal" in="SourceGraphic" in2="effect1_dropShadow_1_53" result="shape"/>
</filter>
<filter id="filter1_d_1_53" x="383.418" y="132.389" width="515.345" height="719.039" filterUnits="userSpaceOnUse" color-interpolation-filters="sRGB">
<feFlood flood-opacity="0" result="BackgroundImageFix"/>
<feColorMatrix in="SourceAlpha" type="matrix" values="0 0 0 0 0 0 0 0 0 0 0 0 0 0 0 0 0 0 127 0" result="hardAlpha"/>
<feOffset dy="2"/>
<feGaussianBlur stdDeviation="10"/>
<feComposite in2="hardAlpha" operator="out"/>
<feColorMatrix type="matrix" values="0 0 0 0 0 0 0 0 0 0 0 0 0 0 0 0 0 0 0.25 0"/>
<feBlend mode="normal" in2="BackgroundImageFix" result="effect1_dropShadow_1_53"/>
<feBlend mode="normal" in="SourceGraphic" in2="effect1_dropShadow_1_53" result="shape"/>
</filter>
<clipPath id="clip0_1_53">
<rect width="1053" height="825" fill="white"/>
</clipPath>
</defs>
</svg>
